<svg xmlns="http://www.w3.org/2000/svg" width="24" height="24" viewBox="0 0 24 24">
  <circle id="Ellipse_524" data-name="Ellipse 524" cx="12" cy="12" r="12" fill="#fff"/>
  <g id="Group_59694" data-name="Group 59694" transform="translate(4.773 7.203)">
    <g id="Group_59693" data-name="Group 59693" transform="translate(0 0)">
      <path id="Path_129991" data-name="Path 129991" d="M-3.328,35.853a.8.8,0,0,1,.138-.01H7.972l-.172-.08a1.6,1.6,0,0,1-.452-.32L5.135,33.23a.828.828,0,0,1-.116-1.06.8.8,0,0,1,1.2-.1l4,4a.8.8,0,0,1,0,1.132h0l-4,4a.8.8,0,0,1-1.2-.08.828.828,0,0,1,.116-1.06l2.209-2.217a1.6,1.6,0,0,1,.4-.292l.24-.108H-3.145a.828.828,0,0,1-.844-.672A.8.8,0,0,1-3.328,35.853Z" transform="translate(4 -31.842)" fill="#004ea2"/>
    </g>
  </g>
</svg>
