<svg xmlns="http://www.w3.org/2000/svg" width="69" height="69" viewBox="0 0 69 69">
  <g id="Group_59937" data-name="Group 59937" transform="translate(-0.001 0.001)">
    <g id="Group_59936" data-name="Group 59936" transform="translate(0.001 -0.001)">
      <g id="Group_59934" data-name="Group 59934" transform="translate(0 0)">
        <path id="Path_130284" data-name="Path 130284" d="M93.839,355.909l-.188-1.853-3.463-2.12-4.433,4.433,1.048,2.763,2.764,1.048,3.074-1.359Z" transform="translate(-74.198 -304.507)" fill="#e5ecf7"/>
        <g id="Group_59933" data-name="Group 59933" transform="translate(15.369 51.368)">
          <path id="Path_130285" data-name="Path 130285" d="M118.315,381.2l-4.272,4.272.028,1.743,1.743.028,4.433-4.433-.127-1.644Z" transform="translate(-114.043 -381.163)" fill="#b9cbea"/>
        </g>
        <path id="Path_130286" data-name="Path 130286" d="M7.607,396.724l8.132-8.131.368-2.083-4.791-4.791a.7.7,0,0,0-.991,0L1.462,390.58a4.992,4.992,0,0,0-.773,6.06,4.958,4.958,0,0,0,6.918.084Z" transform="translate(-0.001 -330.098)" fill="#384656"/>
        <path id="Path_130287" data-name="Path 130287" d="M74.016,28.277a29.071,29.071,0,0,0,8.62,20.838,29.529,29.529,0,0,0,41.758,0,30.311,30.311,0,0,0,8.62-20.838,29.526,29.526,0,0,0-59,0Z" transform="translate(-64.041 0.001)" fill="#ffe07d"/>
        <path id="Path_130288" data-name="Path 130288" d="M117.886,68.022a23.9,23.9,0,0,0,6.884,16.662,23.587,23.587,0,0,0,40.29-16.662,23.661,23.661,0,0,0-10.756-18.6c-7.021-4.644-18.641-4.644-25.662,0a23.662,23.662,0,0,0-10.756,18.6Z" transform="translate(-101.999 -39.745)" fill="#e7a561"/>
        <path id="Path_130289" data-name="Path 130289" d="M124.225,229.451a29.526,29.526,0,0,1-50.378-19.625,29.526,29.526,0,1,0,59,0A29.416,29.416,0,0,1,124.225,229.451Z" transform="translate(-63.872 -181.549)" fill="#ffd064"/>
        <path id="Path_130290" data-name="Path 130290" d="M157.965,225.275a23.62,23.62,0,0,1-40.29-15.449,23.62,23.62,0,1,0,47.174,0A23.53,23.53,0,0,1,157.965,225.275Z" transform="translate(-101.788 -181.549)" fill="#e49542"/>
        <path id="Path_130291" data-name="Path 130291" d="M20.526,418.586l-9.358,9.357a4.993,4.993,0,0,1-6.06.773,4.995,4.995,0,0,0,7.831,1l8.862-8.862a.7.7,0,0,0,0-.991Z" transform="translate(-4.42 -362.175)" fill="#2f3b48"/>
      </g>
      <g id="Group_59935" data-name="Group 59935" transform="translate(23.218 22.613)">
        <path id="Path_130292" data-name="Path 130292" d="M264.175,170.284a1.045,1.045,0,1,0,0-2.091h-4.9a1.045,1.045,0,0,0-1.046,1.045v11.618a1.045,1.045,0,0,0,1.046,1.045h4.9a1.045,1.045,0,1,0,0-2.091h-3.85v-3.718h3.489a1.045,1.045,0,1,0,0-2.091h-3.489v-3.718Z" transform="translate(-246.651 -168.139)" fill="#fff"/>
        <path id="Path_130293" data-name="Path 130293" d="M177.416,179.518a4.509,4.509,0,0,1-3.312-1.395,1.045,1.045,0,0,0-1.549,1.4,6.63,6.63,0,0,0,4.861,2.081,4.474,4.474,0,0,0,4.52-3.4c.4-2.238-1.36-3.737-3.14-4.393-1.509-.557-2.909-1.164-3.262-1.319a1.223,1.223,0,0,1-.488-1.187,1.624,1.624,0,0,1,1.227-1.282,4.333,4.333,0,0,1,3.615.824,1.045,1.045,0,0,0,1.341-1.6,6.39,6.39,0,0,0-5.559-1.222,3.709,3.709,0,0,0-2.694,2.987,3.31,3.31,0,0,0,1.476,3.277,1.062,1.062,0,0,0,.145.079c.067.03,1.67.743,3.475,1.409,1.3.478,1.954,1.231,1.806,2.064A2.365,2.365,0,0,1,177.416,179.518Z" transform="translate(-172.284 -167.793)" fill="#fff"/>
        <path id="Path_130294" data-name="Path 130294" d="M331.53,174.7a6.908,6.908,0,1,0-6.909,6.908A6.916,6.916,0,0,0,331.53,174.7Zm-11.726,0a4.817,4.817,0,1,1,4.817,4.817A4.823,4.823,0,0,1,319.8,174.7Z" transform="translate(-298.114 -167.796)" fill="#fff"/>
      </g>
    </g>
  </g>
</svg>
