<svg xmlns="http://www.w3.org/2000/svg" width="67.864" height="67.708" viewBox="0 0 67.864 67.708">
  <g id="Group_59940" data-name="Group 59940" transform="translate(0 -0.588)">
    <path id="Path_130325" data-name="Path 130325" d="M74.381,65.569H19.507A4.507,4.507,0,0,1,15,61.062V20.1a4.507,4.507,0,0,1,4.507-4.507H74.381A4.507,4.507,0,0,1,78.889,20.1V61.062A4.508,4.508,0,0,1,74.381,65.569Z" transform="translate(-13.013 -13.013)" fill="#fff"/>
    <path id="Path_130326" data-name="Path 130326" d="M283.488,15.588H256.044V65.569h27.444A4.507,4.507,0,0,0,288,61.062V20.1a4.508,4.508,0,0,0-4.507-4.507Z" transform="translate(-222.119 -13.013)" fill="#efefef"/>
    <path id="Path_130327" data-name="Path 130327" d="M15,204.2v20.483a4.507,4.507,0,0,0,4.507,4.508H74.381a4.507,4.507,0,0,0,4.507-4.508V204.2Z" transform="translate(-13.013 -176.637)" fill="#efefef"/>
    <path id="Path_130328" data-name="Path 130328" d="M256.044,204.2v24.991h27.444A4.507,4.507,0,0,0,288,224.686V204.2Z" transform="translate(-222.119 -176.637)" fill="#fff"/>
    <path id="Path_130329" data-name="Path 130329" d="M173.041,406.581l2.161-13.763h17.609l1.939,13.762Z" transform="translate(-150.114 -340.261)" fill="#e5e8f1"/>
    <path id="Path_130330" data-name="Path 130330" d="M256.044,406.586h10.712l-1.939-13.762h-8.773Z" transform="translate(-222.119 -340.266)" fill="#e5e8f1"/>
    <g id="Group_59939" data-name="Group 59939" transform="translate(16.224 64.321)">
      <path id="Path_130331" data-name="Path 130331" d="M155.877,485.583H124.436a1.987,1.987,0,0,1,0-3.975h31.441a1.987,1.987,0,0,1,0,3.975Z" transform="translate(-122.449 -481.608)" fill="#e5e8f1"/>
    </g>
    <path id="Path_130332" data-name="Path 130332" d="M271.772,481.608H256.044v3.975h15.728a1.987,1.987,0,0,0,0-3.975Z" transform="translate(-222.119 -417.287)" fill="#e5e8f1"/>
    <circle id="Ellipse_569" data-name="Ellipse 569" cx="4.588" cy="4.588" r="4.588" transform="translate(44.848 33.901)" fill="#89e2d6"/>
    <path id="Path_130334" data-name="Path 130334" d="M326.087,326.637h-6.021a4.632,4.632,0,0,0-4.6,4.632v1.04a1.213,1.213,0,0,0,1.213,1.213h12.823a1.213,1.213,0,0,0,1.213-1.213v-1.04A4.633,4.633,0,0,0,326.087,326.637Z" transform="translate(-273.673 -282.849)" fill="#89e2d6"/>
    <circle id="Ellipse_570" data-name="Ellipse 570" cx="4.588" cy="4.588" r="4.588" transform="translate(13.921 33.901)" fill="#ff9128"/>
    <path id="Path_130337" data-name="Path 130337" d="M92.663,326.637H86.643a4.632,4.632,0,0,0-4.6,4.632v1.04a1.213,1.213,0,0,0,1.213,1.213H96.083A1.213,1.213,0,0,0,97.3,332.31v-1.04A4.633,4.633,0,0,0,92.663,326.637Z" transform="translate(-71.176 -282.849)" fill="#ff9100"/>
    <circle id="Ellipse_571" data-name="Ellipse 571" cx="4.588" cy="4.588" r="4.588" transform="translate(44.848 10.792)" fill="#ffca55"/>
    <path id="Path_130340" data-name="Path 130340" d="M326.087,152.217h-6.021a4.632,4.632,0,0,0-4.6,4.632v1.04a1.213,1.213,0,0,0,1.213,1.213h12.823a1.213,1.213,0,0,0,1.213-1.213v-1.04A4.633,4.633,0,0,0,326.087,152.217Z" transform="translate(-273.673 -131.539)" fill="#ffca55"/>
    <circle id="Ellipse_572" data-name="Ellipse 572" cx="4.588" cy="4.588" r="4.588" transform="translate(13.921 10.792)" fill="#fb4e6f"/>
    <path id="Path_130342" data-name="Path 130342" d="M139.7,77.6v9.177a4.588,4.588,0,1,0,0-9.177Z" transform="translate(-121.186 -66.807)" fill="#fb4e6f"/>
    <path id="Path_130343" data-name="Path 130343" d="M92.663,152.217H86.643a4.632,4.632,0,0,0-4.6,4.632v1.04A1.213,1.213,0,0,0,83.26,159.1H96.083A1.213,1.213,0,0,0,97.3,157.89v-1.04A4.633,4.633,0,0,0,92.663,152.217Z" transform="translate(-71.176 -131.539)" fill="#fb4e6f"/>
    <path id="Path_130345" data-name="Path 130345" d="M61.894,54.544H5.97A5.97,5.97,0,0,1,0,48.574V6.558A5.97,5.97,0,0,1,5.97.588H61.894a5.97,5.97,0,0,1,5.97,5.97V48.575a5.97,5.97,0,0,1-5.97,5.97ZM5.97,4.563A2,2,0,0,0,3.975,6.558V48.574A2,2,0,0,0,5.97,50.569H61.894a2,2,0,0,0,1.995-1.995V6.558a2,2,0,0,0-1.995-1.995H5.97Z" transform="translate(0 0)" fill="#e5e8f1"/>
    <path id="Path_130346" data-name="Path 130346" d="M284.514.588h-28.47V4.563h28.47a1.494,1.494,0,0,1,1.494,1.494V48.449a2.12,2.12,0,0,1-2.12,2.12H256.044v3.975h28.47a5.469,5.469,0,0,0,5.469-5.469V6.057A5.469,5.469,0,0,0,284.514.588Z" transform="translate(-222.119)" fill="#e5e8f1"/>
  </g>
</svg>
